<svg xmlns="http://www.w3.org/2000/svg" viewBox="0 0 1600 1000" preserveAspectRatio="xMidYMid slice">
<defs>
  <linearGradient id="sky" x1="0" y1="0" x2="1" y2="1"><stop stop-color="#090a12"/><stop offset=".52" stop-color="#17101d"/><stop offset="1" stop-color="#08080b"/></linearGradient>
  <radialGradient id="glow" cx=".68" cy=".34" r=".48"><stop stop-color="#ff4f8b" stop-opacity=".34"/><stop offset="1" stop-color="#ff4f8b" stop-opacity="0"/></radialGradient>
  <linearGradient id="street" x1="0" y1="0" x2="0" y2="1"><stop stop-color="#17131c"/><stop offset="1" stop-color="#020204"/></linearGradient>
  <filter id="blur"><feGaussianBlur stdDeviation="18"/></filter>
</defs>
<rect width="1600" height="1000" fill="url(#sky)"/>
<rect width="1600" height="1000" fill="url(#glow)"/>
<g opacity=".16" fill="#fff">
  <circle cx="160" cy="150" r="2"/><circle cx="310" cy="95" r="1.5"/><circle cx="470" cy="190" r="2"/><circle cx="760" cy="120" r="1.5"/><circle cx="1050" cy="175" r="2"/><circle cx="1320" cy="100" r="1.5"/><circle cx="1480" cy="230" r="2"/>
</g>
<g opacity=".22" fill="#ff4f8b" filter="url(#blur)"><circle cx="1220" cy="640" r="80"/><circle cx="1380" cy="520" r="48"/><circle cx="1010" cy="720" r="55"/></g>
<path d="M0 700 L180 610 330 680 490 560 650 670 820 520 980 660 1130 540 1290 650 1450 500 1600 610 V1000 H0Z" fill="#050507"/>
<path d="M0 790 Q400 690 800 800 T1600 760 V1000 H0Z" fill="url(#street)"/>
<g fill="#ff4f8b" opacity=".55">
 <rect x="260" y="650" width="5" height="115"/><rect x="267" y="700" width="2" height="55"/>
 <rect x="1080" y="635" width="5" height="145"/><rect x="1087" y="690" width="2" height="70"/>
 <rect x="1350" y="600" width="5" height="155"/><rect x="1357" y="650" width="2" height="90"/>
</g>
<g fill="#fff" opacity=".14">
 <rect x="420" y="625" width="70" height="95"/><rect x="510" y="600" width="55" height="120"/><rect x="900" y="615" width="80" height="105"/>
</g>
</svg>